<svg width="81" height="88" viewBox="0 0 81 88" fill="none" xmlns="http://www.w3.org/2000/svg">
<g filter="url(#filter0_d_103283_3)">
<rect x="23.8649" y="18" width="34.0309" height="41.7571" rx="17.0154" fill="#E3B873"/>
<rect x="19.8649" y="14" width="42.0309" height="49.7571" rx="21.0154" stroke="white" stroke-width="8"/>
</g>
<path d="M35.5155 44.7517C34.5435 44.7517 33.6615 44.4937 32.8695 43.9777C32.0775 43.4617 31.4475 42.7117 30.9795 41.7277C30.5235 40.7317 30.2955 39.5497 30.2955 38.1817C30.2955 36.8137 30.5235 35.6377 30.9795 34.6537C31.4475 33.6577 32.0775 32.9017 32.8695 32.3857C33.6615 31.8697 34.5435 31.6117 35.5155 31.6117C36.4875 31.6117 37.3695 31.8697 38.1615 32.3857C38.9535 32.9017 39.5775 33.6577 40.0335 34.6537C40.5015 35.6377 40.7355 36.8137 40.7355 38.1817C40.7355 39.5497 40.5015 40.7317 40.0335 41.7277C39.5775 42.7117 38.9535 43.4617 38.1615 43.9777C37.3695 44.4937 36.4875 44.7517 35.5155 44.7517ZM35.5155 44.3917C36.8955 44.3917 37.5855 42.3217 37.5855 38.1817C37.5855 34.0417 36.8955 31.9717 35.5155 31.9717C34.1355 31.9717 33.4455 34.0417 33.4455 38.1817C33.4455 42.3217 34.1355 44.3917 35.5155 44.3917ZM42.0841 43.6717C42.0841 42.9637 42.2221 42.3217 42.4981 41.7457C42.7861 41.1577 43.1341 40.6477 43.5421 40.2157C43.9501 39.7837 44.4841 39.2737 45.1441 38.6857C45.7561 38.1457 46.2361 37.6957 46.5841 37.3357C46.9321 36.9637 47.2261 36.5497 47.4661 36.0937C47.7061 35.6257 47.8261 35.1217 47.8261 34.5817C47.8261 33.7897 47.6341 33.1717 47.2501 32.7277C46.8661 32.2837 46.3681 32.0617 45.7561 32.0617C45.4081 32.0617 45.0541 32.1097 44.6941 32.2057L44.3161 32.3317V35.2117L44.0821 35.2657C43.8901 35.2897 43.7281 35.3017 43.5961 35.3017C43.1881 35.3017 42.8581 35.1817 42.6061 34.9417C42.3661 34.6897 42.2461 34.3597 42.2461 33.9517C42.2461 33.5677 42.3901 33.1957 42.6781 32.8357C42.9781 32.4757 43.4161 32.1817 43.9921 31.9537C44.5801 31.7257 45.2881 31.6117 46.1161 31.6117C47.7361 31.6117 48.9361 31.9357 49.7161 32.5837C50.4961 33.2317 50.8861 34.1377 50.8861 35.3017C50.8861 36.0337 50.6941 36.6637 50.3101 37.1917C49.9381 37.7197 49.4761 38.1577 48.9241 38.5057C48.3841 38.8537 47.6581 39.2497 46.7461 39.6937C45.9781 40.0657 45.3541 40.3957 44.8741 40.6837C44.4061 40.9597 43.9681 41.2957 43.5601 41.6917C43.1641 42.0877 42.8821 42.5377 42.7141 43.0417H49.3741C49.4581 42.3937 49.6621 41.8537 49.9861 41.4217C50.1181 41.2177 50.2741 41.0377 50.4541 40.8817H50.9941V44.4817H42.0841V43.6717Z" fill="white"/>
<defs>
<filter id="filter0_d_103283_3" x="0.864899" y="0" width="80.0309" height="87.7571" filterUnits="userSpaceOnUse" color-interpolation-filters="sRGB">
<feFlood flood-opacity="0" result="BackgroundImageFix"/>
<feColorMatrix in="SourceAlpha" type="matrix" values="0 0 0 0 0 0 0 0 0 0 0 0 0 0 0 0 0 0 127 0" result="hardAlpha"/>
<feOffset dy="5"/>
<feGaussianBlur stdDeviation="7.5"/>
<feColorMatrix type="matrix" values="0 0 0 0 0.890196 0 0 0 0 0.721569 0 0 0 0 0.45098 0 0 0 0.15 0"/>
<feBlend mode="normal" in2="BackgroundImageFix" result="effect1_dropShadow_103283_3"/>
<feBlend mode="normal" in="SourceGraphic" in2="effect1_dropShadow_103283_3" result="shape"/>
</filter>
</defs>
</svg>
