<svg width="81" height="88" viewBox="0 0 81 88" fill="none" xmlns="http://www.w3.org/2000/svg">
<g filter="url(#filter0_d_103283_4)">
<rect x="23.8649" y="18" width="34.0309" height="41.7571" rx="17.0154" fill="#E3B873"/>
<rect x="19.8649" y="14" width="42.0309" height="49.7571" rx="21.0154" stroke="white" stroke-width="8"/>
</g>
<path d="M35.3079 44.1323C34.3359 44.1323 33.4539 43.8743 32.6619 43.3583C31.8699 42.8423 31.2399 42.0923 30.7719 41.1083C30.3159 40.1123 30.0879 38.9303 30.0879 37.5623C30.0879 36.1943 30.3159 35.0183 30.7719 34.0343C31.2399 33.0383 31.8699 32.2823 32.6619 31.7663C33.4539 31.2503 34.3359 30.9923 35.3079 30.9923C36.2799 30.9923 37.1619 31.2503 37.9539 31.7663C38.7459 32.2823 39.3699 33.0383 39.8259 34.0343C40.2939 35.0183 40.5279 36.1943 40.5279 37.5623C40.5279 38.9303 40.2939 40.1123 39.8259 41.1083C39.3699 42.0923 38.7459 42.8423 37.9539 43.3583C37.1619 43.8743 36.2799 44.1323 35.3079 44.1323ZM35.3079 43.7723C36.6879 43.7723 37.3779 41.7023 37.3779 37.5623C37.3779 33.4223 36.6879 31.3523 35.3079 31.3523C33.9279 31.3523 33.2379 33.4223 33.2379 37.5623C33.2379 41.7023 33.9279 43.7723 35.3079 43.7723ZM45.6565 44.1323C44.8285 44.1323 44.1205 44.0183 43.5325 43.7903C42.9565 43.5623 42.5185 43.2683 42.2185 42.9083C41.9305 42.5483 41.7865 42.1763 41.7865 41.7923C41.7865 41.3843 41.9065 41.0603 42.1465 40.8203C42.3985 40.5683 42.7285 40.4423 43.1365 40.4423C43.2325 40.4423 43.3285 40.4543 43.4245 40.4783C43.5205 40.4903 43.5865 40.4963 43.6225 40.4963L43.8565 40.5323V43.4123C43.8685 43.4123 43.9945 43.4603 44.2345 43.5563C44.5465 43.6403 44.9005 43.6823 45.2965 43.6823C46.1365 43.6823 46.7785 43.4303 47.2225 42.9263C47.6785 42.4103 47.9065 41.6423 47.9065 40.6223C47.9065 39.5783 47.6845 38.7923 47.2405 38.2643C46.8085 37.7363 46.2205 37.4723 45.4765 37.4723H44.5765V37.0223H45.4765C46.0165 37.0223 46.4665 36.7823 46.8265 36.3023C47.1865 35.8223 47.3665 35.1323 47.3665 34.2323C47.3665 33.3323 47.1805 32.6423 46.8085 32.1623C46.4365 31.6823 45.9625 31.4423 45.3865 31.4423C45.0745 31.4423 44.7745 31.4903 44.4865 31.5863C44.4505 31.5983 44.3305 31.6403 44.1265 31.7123V34.5923L43.8925 34.6463C43.7005 34.6703 43.5385 34.6823 43.4065 34.6823C42.9985 34.6823 42.6685 34.5623 42.4165 34.3223C42.1765 34.0703 42.0565 33.7403 42.0565 33.3323C42.0565 32.9603 42.2005 32.5943 42.4885 32.2343C42.7765 31.8743 43.1965 31.5803 43.7485 31.3523C44.3125 31.1123 44.9785 30.9923 45.7465 30.9923C46.7545 30.9923 47.6065 31.1423 48.3025 31.4423C49.0105 31.7303 49.5385 32.1203 49.8865 32.6123C50.2465 33.1043 50.4265 33.6443 50.4265 34.2323C50.4265 34.9163 50.2525 35.4623 49.9045 35.8703C49.5565 36.2663 49.1005 36.5843 48.5365 36.8243C47.9845 37.0403 47.3545 37.1663 46.6465 37.2023V37.2923C47.4385 37.3283 48.1585 37.4663 48.8065 37.7063C50.2465 38.2823 50.9665 39.2543 50.9665 40.6223C50.9665 41.6783 50.5285 42.5303 49.6525 43.1783C48.7885 43.8143 47.4565 44.1323 45.6565 44.1323Z" fill="white"/>
<defs>
<filter id="filter0_d_103283_4" x="0.864899" y="0" width="80.0309" height="87.7571" filterUnits="userSpaceOnUse" color-interpolation-filters="sRGB">
<feFlood flood-opacity="0" result="BackgroundImageFix"/>
<feColorMatrix in="SourceAlpha" type="matrix" values="0 0 0 0 0 0 0 0 0 0 0 0 0 0 0 0 0 0 127 0" result="hardAlpha"/>
<feOffset dy="5"/>
<feGaussianBlur stdDeviation="7.5"/>
<feColorMatrix type="matrix" values="0 0 0 0 0.890196 0 0 0 0 0.721569 0 0 0 0 0.45098 0 0 0 0.15 0"/>
<feBlend mode="normal" in2="BackgroundImageFix" result="effect1_dropShadow_103283_4"/>
<feBlend mode="normal" in="SourceGraphic" in2="effect1_dropShadow_103283_4" result="shape"/>
</filter>
</defs>
</svg>
