<svg width="81" height="88" viewBox="0 0 81 88" fill="none" xmlns="http://www.w3.org/2000/svg">
<g filter="url(#filter0_d_103283_5)">
<rect x="23.8649" y="18" width="34.0309" height="41.7571" rx="17.0154" fill="#E3B873"/>
<rect x="19.8649" y="14" width="42.0309" height="49.7571" rx="21.0154" stroke="white" stroke-width="8"/>
</g>
<path d="M35.1761 45.1323C34.2041 45.1323 33.3221 44.8743 32.5301 44.3583C31.7381 43.8423 31.1081 43.0923 30.6401 42.1083C30.1841 41.1123 29.9561 39.9303 29.9561 38.5623C29.9561 37.1943 30.1841 36.0183 30.6401 35.0343C31.1081 34.0383 31.7381 33.2823 32.5301 32.7663C33.3221 32.2503 34.2041 31.9923 35.1761 31.9923C36.1481 31.9923 37.0301 32.2503 37.8221 32.7663C38.6141 33.2823 39.2381 34.0383 39.6941 35.0343C40.1621 36.0183 40.3961 37.1943 40.3961 38.5623C40.3961 39.9303 40.1621 41.1123 39.6941 42.1083C39.2381 43.0923 38.6141 43.8423 37.8221 44.3583C37.0301 44.8743 36.1481 45.1323 35.1761 45.1323ZM35.1761 44.7723C36.5561 44.7723 37.2461 42.7023 37.2461 38.5623C37.2461 34.4223 36.5561 32.3523 35.1761 32.3523C33.7961 32.3523 33.1061 34.4223 33.1061 38.5623C33.1061 42.7023 33.7961 44.7723 35.1761 44.7723ZM45.4346 44.8623V44.5923L46.6946 44.2323V41.5323H41.5646L41.2046 40.9923L47.9546 32.0823H49.6646V40.7223H51.5546V41.5323H49.6646V44.2323L50.9246 44.5923V44.8623H45.4346ZM42.1946 40.7223H46.6946V34.7823L42.1946 40.7223Z" fill="white"/>
<defs>
<filter id="filter0_d_103283_5" x="0.864899" y="0" width="80.0309" height="87.7571" filterUnits="userSpaceOnUse" color-interpolation-filters="sRGB">
<feFlood flood-opacity="0" result="BackgroundImageFix"/>
<feColorMatrix in="SourceAlpha" type="matrix" values="0 0 0 0 0 0 0 0 0 0 0 0 0 0 0 0 0 0 127 0" result="hardAlpha"/>
<feOffset dy="5"/>
<feGaussianBlur stdDeviation="7.5"/>
<feColorMatrix type="matrix" values="0 0 0 0 0.890196 0 0 0 0 0.721569 0 0 0 0 0.45098 0 0 0 0.15 0"/>
<feBlend mode="normal" in2="BackgroundImageFix" result="effect1_dropShadow_103283_5"/>
<feBlend mode="normal" in="SourceGraphic" in2="effect1_dropShadow_103283_5" result="shape"/>
</filter>
</defs>
</svg>
