<svg width="99" height="113" viewBox="0 0 99 113" fill="none" xmlns="http://www.w3.org/2000/svg">
<g filter="url(#filter0_d_1_11115)">
<ellipse cx="49.4495" cy="46.4424" rx="29.339" ry="36" fill="#E3B873"/>
</g>
<path d="M49.7263 53.7206C49.4039 53.7206 49.1572 54.0298 49.1572 54.3917V55.7163C49.1572 56.0781 49.4039 56.3873 49.7263 56.3873C50.0486 56.3873 50.2954 56.0781 50.2954 55.7163V54.3917C50.2954 54.0298 50.0486 53.7206 49.7263 53.7206Z" fill="white" stroke="white" stroke-width="0.1"/>
<path d="M63.3608 44.4446L63.3608 44.4446C62.9933 42.2882 62.1692 40.2549 60.9768 38.5641C59.8295 36.9372 58.3609 35.6553 56.722 34.8466C56.4543 33.5122 55.8925 32.1344 54.7878 31.0959C53.7118 30.0844 52.6272 29.8888 52.5768 29.8802L52.5767 29.8801C52.4102 29.8517 52.2428 29.9116 52.1188 30.0404C51.9951 30.1686 51.9258 30.3526 51.9258 30.5442V33.8478H50.1311C49.6513 31.94 48.1673 30.5357 46.4042 30.5357C44.6019 30.5357 43.0903 32.0029 42.646 33.976C40.0782 34.404 37.7188 35.8966 35.9674 38.2085L36.0018 38.2346L35.9674 38.2085C34.1178 40.6503 33.1001 43.8097 33.1001 47.1048C33.1001 54.4915 36.305 60.5003 37.2875 62.1663C37.598 62.693 38.1094 63.0115 38.6578 63.0115H40.8672C41.7997 63.0115 42.5437 62.1074 42.5437 61.0156V60.2159C43.0867 60.3124 43.6377 60.3618 44.1894 60.3618H49.1573V61.0156C49.1573 62.1074 49.9013 63.0115 50.8338 63.0115H53.2607C54.0528 63.0115 54.7375 62.3408 54.9003 61.4322L55.1612 59.9755C58.5671 58.9712 61.3026 56.1139 62.6573 52.4129H64.6762C65.3034 52.4129 65.799 51.806 65.799 51.0795V45.78C65.799 45.4264 65.684 45.0925 65.473 44.8402C65.2621 44.5878 64.9793 44.4465 64.6763 44.4465H64.6762H64.6762H64.6762H64.6762H64.6762H64.6762H64.6761H64.6761H64.6761H64.6761H64.6761H64.6761L63.3612 44.4467C63.361 44.446 63.3609 44.4453 63.3608 44.4446ZM64.6608 51.0293H64.6608V51.0708H63.0775C63.3514 50.027 63.5201 48.931 63.5691 47.8015C63.5848 47.4403 63.3519 47.117 63.0307 47.0971L63.0306 47.0971C62.7083 47.0776 62.448 47.3713 62.4324 47.7329C62.2146 52.755 59.3759 57.0408 55.4265 58.4941L56.1365 54.5306C56.1999 54.1764 56.013 53.816 55.7009 53.736C55.3846 53.6546 55.0865 53.8975 55.0229 54.2527L53.7867 61.1542C53.7321 61.4591 53.506 61.6694 53.2607 61.6694H50.8337C50.5449 61.6694 50.2954 61.3848 50.2954 61.0156V58.3658C50.2954 58.004 50.0486 57.6948 49.7263 57.6948C49.4039 57.6948 49.1572 58.004 49.1572 58.3658V59.0197H44.1893C43.6368 59.0197 43.0852 58.9642 42.5436 58.8564V54.3914C42.5436 54.0296 42.2968 53.7204 41.9745 53.7204C41.6521 53.7204 41.4054 54.0296 41.4054 54.3914V61.0156C41.4054 61.3849 41.1558 61.6695 40.8671 61.6695H38.6578C38.4838 61.6695 38.3245 61.5737 38.222 61.3996L38.222 61.3996C37.2875 59.8148 34.2383 54.0995 34.2383 47.1047C34.2383 44.1386 35.1544 41.2969 36.8163 39.103L36.7765 39.0728L36.8163 39.103C38.3239 37.1127 40.3294 35.802 42.5161 35.3583C42.5284 35.7455 42.5812 36.1283 42.6723 36.4974H42.5283C42.2059 36.4974 41.9592 36.8066 41.9592 37.1684C41.9592 37.5303 42.2059 37.8395 42.5283 37.8395H50.2801C50.6024 37.8395 50.8492 37.5303 50.8492 37.1684C50.8492 36.8066 50.6024 36.4974 50.2801 36.4974H50.1361C50.2404 36.0748 50.2947 35.6343 50.2954 35.1897H51.9257V36.506C51.9257 36.8678 52.1725 37.177 52.4948 37.177C52.8172 37.177 53.0639 36.8678 53.0639 36.506V31.4381C53.5452 31.6686 54.2077 32.1154 54.7603 32.9611C55.3404 33.849 55.8016 35.1798 55.8016 37.1685C55.8016 37.5303 56.0484 37.8395 56.3707 37.8395C56.6931 37.8395 56.9398 37.5303 56.9398 37.1685C56.9398 36.9332 56.9335 36.6862 56.9192 36.4313C58.1323 37.1546 59.2217 38.1751 60.1017 39.4228C61.1731 40.9422 61.9145 42.7703 62.2449 44.7095C62.3503 45.3279 62.8071 45.7889 63.3437 45.7888L64.6608 45.7887V51.0293ZM46.4042 31.8778C47.9142 31.8778 49.1572 33.351 49.1572 35.1813C49.1572 35.6363 49.0779 36.0846 48.9283 36.4975H43.88C43.7305 36.0844 43.6511 35.6363 43.6511 35.1813C43.6511 33.351 44.8942 31.8778 46.4042 31.8778Z" fill="white" stroke="white" stroke-width="0.1"/>
<path d="M55.8875 44.8858L55.8875 44.8858C56.2152 43.8348 57.0845 43.1218 58.0573 43.1218C59.0301 43.1218 59.8996 43.8348 60.227 44.8858L55.8875 44.8858ZM55.8875 44.8858C55.7815 45.2261 55.9235 45.6129 56.22 45.7452M55.8875 44.8858L56.22 45.7452M56.22 45.7452C56.5227 45.8803 56.8491 45.6919 56.9558 45.3494M56.22 45.7452L56.9558 45.3494M56.9558 45.3494C57.122 44.8163 57.5667 44.4638 58.0573 44.4638M56.9558 45.3494C56.9558 45.3495 56.9558 45.3495 56.9558 45.3495L58.0573 44.4638M58.0573 44.4638C58.5478 44.4638 58.9927 44.8163 59.1588 45.3495M58.0573 44.4638L59.1588 45.3495M59.1588 45.3495C59.2419 45.6162 59.4565 45.7888 59.6929 45.7888M59.1588 45.3495L59.6929 45.7888M59.6929 45.7888C59.7603 45.7888 59.8285 45.7747 59.8946 45.7452M59.6929 45.7888L59.8946 45.7452M59.8946 45.7452C60.1911 45.6129 60.333 45.2261 60.227 44.8858L59.8946 45.7452Z" fill="white" stroke="white" stroke-width="0.1"/>
<path d="M48.8161 47.521C48.2847 47.0789 47.6 46.8077 46.9733 46.5955V43.516C47.4506 43.5937 47.8543 43.7641 48.1407 43.974C48.4402 44.1934 48.6036 44.4497 48.6036 44.683C48.6036 45.0448 48.8503 45.354 49.1727 45.354C49.495 45.354 49.7418 45.0448 49.7418 44.683C49.7418 43.3901 48.5537 42.3636 46.9733 42.1638V42.1368C46.9733 41.7749 46.7265 41.4657 46.4042 41.4657C46.0818 41.4657 45.8351 41.7749 45.8351 42.1368V42.1638C44.2546 42.3636 43.0666 43.3901 43.0666 44.683C43.0666 45.6061 43.4488 46.2367 43.9922 46.6888C44.5236 47.131 45.2083 47.4021 45.8351 47.6144V50.6938C45.3577 50.6161 44.954 50.4458 44.6676 50.2359C44.3681 50.0164 44.2048 49.7602 44.2048 49.5269C44.2048 49.165 43.958 48.8559 43.6357 48.8559C43.3133 48.8559 43.0666 49.165 43.0666 49.5269C43.0666 50.8197 44.2546 51.8463 45.8351 52.046V52.0731C45.8351 52.4349 46.0818 52.7441 46.4042 52.7441C46.7265 52.7441 46.9733 52.4349 46.9733 52.0731V52.046C48.5537 51.8463 49.7418 50.8197 49.7418 49.5269C49.7418 48.6037 49.3595 47.9732 48.8161 47.521ZM45.8351 43.516V46.2058C45.2347 45.9759 44.8304 45.7571 44.5746 45.5189C44.3121 45.2745 44.2048 45.009 44.2048 44.683C44.2048 44.4497 44.3681 44.1934 44.6676 43.974C44.954 43.7641 45.3577 43.5937 45.8351 43.516ZM48.1407 50.236C47.8543 50.4459 47.4506 50.6162 46.9733 50.6939V48.0041C47.5736 48.234 47.9779 48.4528 48.2338 48.691C48.4963 48.9354 48.6036 49.201 48.6036 49.527C48.6036 49.7603 48.4402 50.0165 48.1407 50.236Z" fill="white" stroke="white" stroke-width="0.1"/>
<defs>
<filter id="filter0_d_1_11115" x="0.110474" y="0.442383" width="98.678" height="112" filterUnits="userSpaceOnUse" color-interpolation-filters="sRGB">
<feFlood flood-opacity="0" result="BackgroundImageFix"/>
<feColorMatrix in="SourceAlpha" type="matrix" values="0 0 0 0 0 0 0 0 0 0 0 0 0 0 0 0 0 0 127 0" result="hardAlpha"/>
<feOffset dy="10"/>
<feGaussianBlur stdDeviation="10"/>
<feColorMatrix type="matrix" values="0 0 0 0 0.929412 0 0 0 0 0.752941 0 0 0 0 0.470588 0 0 0 0.2 0"/>
<feBlend mode="normal" in2="BackgroundImageFix" result="effect1_dropShadow_1_11115"/>
<feBlend mode="normal" in="SourceGraphic" in2="effect1_dropShadow_1_11115" result="shape"/>
</filter>
</defs>
</svg>
